<mxfile host="app.diagrams.net" modified="2022-02-06T22:49:44.037Z" agent="5.0 (Macintosh; Intel Mac OS X 10_15_7) AppleWebKit/537.36 (KHTML, like Gecko) Chrome/97.0.4692.99 Safari/537.36" etag="BRqojP9jjCM3dFftDd3X" version="15.7.3" type="github">
  <diagram id="C5RBs43oDa-KdzZeNtuy" name="Page-1">
    <mxGraphModel dx="1773" dy="532" grid="1" gridSize="10" guides="1" tooltips="1" connect="1" arrows="1" fold="1" page="1" pageScale="1" pageWidth="827" pageHeight="1169" math="0" shadow="0">
      <root>
        <mxCell id="WIyWlLk6GJQsqaUBKTNV-0" />
        <mxCell id="WIyWlLk6GJQsqaUBKTNV-1" parent="WIyWlLk6GJQsqaUBKTNV-0" />
        <mxCell id="Wcoj9C88xGsYQc_cgpiG-21" value="" style="edgeStyle=orthogonalEdgeStyle;rounded=0;orthogonalLoop=1;jettySize=auto;html=1;" edge="1" parent="WIyWlLk6GJQsqaUBKTNV-1" source="Wcoj9C88xGsYQc_cgpiG-0" target="Wcoj9C88xGsYQc_cgpiG-4">
          <mxGeometry relative="1" as="geometry">
            <Array as="points">
              <mxPoint x="310" y="120" />
              <mxPoint x="414" y="120" />
            </Array>
          </mxGeometry>
        </mxCell>
        <mxCell id="Wcoj9C88xGsYQc_cgpiG-26" style="edgeStyle=orthogonalEdgeStyle;rounded=0;orthogonalLoop=1;jettySize=auto;html=1;entryX=0.5;entryY=0;entryDx=0;entryDy=0;" edge="1" parent="WIyWlLk6GJQsqaUBKTNV-1" source="Wcoj9C88xGsYQc_cgpiG-0" target="Wcoj9C88xGsYQc_cgpiG-6">
          <mxGeometry relative="1" as="geometry">
            <Array as="points">
              <mxPoint x="310" y="120" />
              <mxPoint x="237" y="120" />
            </Array>
          </mxGeometry>
        </mxCell>
        <mxCell id="Wcoj9C88xGsYQc_cgpiG-29" style="edgeStyle=orthogonalEdgeStyle;rounded=0;orthogonalLoop=1;jettySize=auto;html=1;exitX=0.5;exitY=1;exitDx=0;exitDy=0;entryX=0.5;entryY=0;entryDx=0;entryDy=0;" edge="1" parent="WIyWlLk6GJQsqaUBKTNV-1" source="Wcoj9C88xGsYQc_cgpiG-0" target="Wcoj9C88xGsYQc_cgpiG-7">
          <mxGeometry relative="1" as="geometry">
            <Array as="points">
              <mxPoint x="310" y="120" />
              <mxPoint x="10" y="120" />
            </Array>
          </mxGeometry>
        </mxCell>
        <mxCell id="Wcoj9C88xGsYQc_cgpiG-30" style="edgeStyle=orthogonalEdgeStyle;rounded=0;orthogonalLoop=1;jettySize=auto;html=1;exitX=0.5;exitY=1;exitDx=0;exitDy=0;entryX=1;entryY=0.5;entryDx=0;entryDy=0;" edge="1" parent="WIyWlLk6GJQsqaUBKTNV-1" source="Wcoj9C88xGsYQc_cgpiG-0" target="Wcoj9C88xGsYQc_cgpiG-5">
          <mxGeometry relative="1" as="geometry">
            <Array as="points">
              <mxPoint x="310" y="120" />
              <mxPoint x="120" y="120" />
              <mxPoint x="120" y="290" />
            </Array>
          </mxGeometry>
        </mxCell>
        <mxCell id="Wcoj9C88xGsYQc_cgpiG-33" style="edgeStyle=orthogonalEdgeStyle;rounded=0;orthogonalLoop=1;jettySize=auto;html=1;entryX=0.75;entryY=0;entryDx=0;entryDy=0;" edge="1" parent="WIyWlLk6GJQsqaUBKTNV-1" source="Wcoj9C88xGsYQc_cgpiG-0" target="Wcoj9C88xGsYQc_cgpiG-1">
          <mxGeometry relative="1" as="geometry">
            <Array as="points">
              <mxPoint x="310" y="120" />
              <mxPoint x="158" y="120" />
            </Array>
          </mxGeometry>
        </mxCell>
        <mxCell id="Wcoj9C88xGsYQc_cgpiG-0" value="&lt;font color=&quot;#353833&quot; face=&quot;dejavu sans mono, monospace&quot;&gt;&lt;span style=&quot;font-size: 14px&quot;&gt;&lt;b&gt;Set&lt;/b&gt;&lt;/span&gt;&lt;/font&gt;" style="rounded=0;whiteSpace=wrap;html=1;" vertex="1" parent="WIyWlLk6GJQsqaUBKTNV-1">
          <mxGeometry x="250" y="40" width="120" height="60" as="geometry" />
        </mxCell>
        <mxCell id="Wcoj9C88xGsYQc_cgpiG-1" value="&lt;span style=&quot;color: rgb(53 , 56 , 51) ; font-family: &amp;#34;dejavu sans mono&amp;#34; , monospace ; font-size: 14px ; font-weight: 700 ; background-color: rgb(255 , 255 , 255)&quot;&gt;ConcurrentHashMap.KeySetView&lt;/span&gt;" style="rounded=0;whiteSpace=wrap;html=1;" vertex="1" parent="WIyWlLk6GJQsqaUBKTNV-1">
          <mxGeometry x="-60" y="380" width="290" height="60" as="geometry" />
        </mxCell>
        <mxCell id="Wcoj9C88xGsYQc_cgpiG-3" value="&lt;font color=&quot;#353833&quot; face=&quot;dejavu sans mono, monospace&quot;&gt;&lt;span style=&quot;font-size: 14px ; background-color: rgb(255 , 255 , 255)&quot;&gt;&lt;b&gt;ConcurrentSkipListSet&lt;br&gt;&lt;/b&gt;&lt;/span&gt;&lt;/font&gt;" style="rounded=0;whiteSpace=wrap;html=1;" vertex="1" parent="WIyWlLk6GJQsqaUBKTNV-1">
          <mxGeometry x="600" y="273" width="190" height="60" as="geometry" />
        </mxCell>
        <mxCell id="Wcoj9C88xGsYQc_cgpiG-4" value="&lt;font color=&quot;#353833&quot; face=&quot;dejavu sans mono, monospace&quot;&gt;&lt;span style=&quot;font-size: 14px ; background-color: rgb(255 , 255 , 255)&quot;&gt;&lt;b&gt;CopyOnArraySet&lt;br&gt;&lt;/b&gt;&lt;/span&gt;&lt;/font&gt;" style="rounded=0;whiteSpace=wrap;html=1;" vertex="1" parent="WIyWlLk6GJQsqaUBKTNV-1">
          <mxGeometry x="354" y="150" width="120" height="60" as="geometry" />
        </mxCell>
        <mxCell id="Wcoj9C88xGsYQc_cgpiG-5" value="&lt;font color=&quot;#353833&quot; face=&quot;dejavu sans mono, monospace&quot;&gt;&lt;span style=&quot;font-size: 14px ; background-color: rgb(255 , 255 , 255)&quot;&gt;&lt;b&gt;EnumSet&lt;br&gt;&lt;/b&gt;&lt;/span&gt;&lt;/font&gt;" style="rounded=0;whiteSpace=wrap;html=1;" vertex="1" parent="WIyWlLk6GJQsqaUBKTNV-1">
          <mxGeometry x="-40" y="260" width="120" height="60" as="geometry" />
        </mxCell>
        <mxCell id="Wcoj9C88xGsYQc_cgpiG-10" style="edgeStyle=orthogonalEdgeStyle;rounded=0;orthogonalLoop=1;jettySize=auto;html=1;exitX=0.5;exitY=1;exitDx=0;exitDy=0;entryX=0.5;entryY=0;entryDx=0;entryDy=0;" edge="1" parent="WIyWlLk6GJQsqaUBKTNV-1" source="Wcoj9C88xGsYQc_cgpiG-6" target="Wcoj9C88xGsYQc_cgpiG-8">
          <mxGeometry relative="1" as="geometry" />
        </mxCell>
        <mxCell id="Wcoj9C88xGsYQc_cgpiG-6" value="&lt;font color=&quot;#353833&quot; face=&quot;dejavu sans mono, monospace&quot;&gt;&lt;span style=&quot;font-size: 14px ; background-color: rgb(255 , 255 , 255)&quot;&gt;&lt;b&gt;HashSet&lt;br&gt;&lt;/b&gt;&lt;/span&gt;&lt;/font&gt;" style="rounded=0;whiteSpace=wrap;html=1;" vertex="1" parent="WIyWlLk6GJQsqaUBKTNV-1">
          <mxGeometry x="177" y="153" width="120" height="60" as="geometry" />
        </mxCell>
        <mxCell id="Wcoj9C88xGsYQc_cgpiG-7" value="&lt;font color=&quot;#353833&quot; face=&quot;dejavu sans mono, monospace&quot;&gt;&lt;span style=&quot;font-size: 14px ; background-color: rgb(255 , 255 , 255)&quot;&gt;&lt;b&gt;JobStateReasons&lt;br&gt;&lt;/b&gt;&lt;/span&gt;&lt;/font&gt;" style="rounded=0;whiteSpace=wrap;html=1;" vertex="1" parent="WIyWlLk6GJQsqaUBKTNV-1">
          <mxGeometry x="-60" y="150" width="140" height="60" as="geometry" />
        </mxCell>
        <mxCell id="Wcoj9C88xGsYQc_cgpiG-8" value="&lt;font color=&quot;#353833&quot; face=&quot;dejavu sans mono, monospace&quot;&gt;&lt;span style=&quot;font-size: 14px ; background-color: rgb(255 , 255 , 255)&quot;&gt;&lt;b&gt;LinkedHashSet&lt;br&gt;&lt;/b&gt;&lt;/span&gt;&lt;/font&gt;" style="rounded=0;whiteSpace=wrap;html=1;" vertex="1" parent="WIyWlLk6GJQsqaUBKTNV-1">
          <mxGeometry x="177" y="273" width="120" height="60" as="geometry" />
        </mxCell>
        <mxCell id="Wcoj9C88xGsYQc_cgpiG-9" value="&lt;font color=&quot;#353833&quot; face=&quot;dejavu sans mono, monospace&quot;&gt;&lt;span style=&quot;font-size: 14px ; background-color: rgb(255 , 255 , 255)&quot;&gt;&lt;b&gt;TreeSet&lt;br&gt;&lt;/b&gt;&lt;/span&gt;&lt;/font&gt;" style="rounded=0;whiteSpace=wrap;html=1;" vertex="1" parent="WIyWlLk6GJQsqaUBKTNV-1">
          <mxGeometry x="440" y="380" width="120" height="60" as="geometry" />
        </mxCell>
        <mxCell id="Wcoj9C88xGsYQc_cgpiG-34" style="edgeStyle=orthogonalEdgeStyle;rounded=0;orthogonalLoop=1;jettySize=auto;html=1;exitX=0.5;exitY=1;exitDx=0;exitDy=0;entryX=0.5;entryY=0;entryDx=0;entryDy=0;" edge="1" parent="WIyWlLk6GJQsqaUBKTNV-1" source="Wcoj9C88xGsYQc_cgpiG-11" target="Wcoj9C88xGsYQc_cgpiG-3">
          <mxGeometry relative="1" as="geometry">
            <Array as="points">
              <mxPoint x="580" y="240" />
              <mxPoint x="695" y="240" />
            </Array>
          </mxGeometry>
        </mxCell>
        <mxCell id="Wcoj9C88xGsYQc_cgpiG-11" value="&lt;b style=&quot;color: rgb(53 , 56 , 51) ; font-family: &amp;#34;dejavu sans mono&amp;#34; , monospace ; font-size: 14px ; font-style: normal ; letter-spacing: normal ; text-align: center ; text-indent: 0px ; text-transform: none ; word-spacing: 0px&quot;&gt;NavigableSet&lt;/b&gt;" style="rounded=0;whiteSpace=wrap;html=1;" vertex="1" parent="WIyWlLk6GJQsqaUBKTNV-1">
          <mxGeometry x="520" y="153" width="120" height="60" as="geometry" />
        </mxCell>
        <mxCell id="Wcoj9C88xGsYQc_cgpiG-18" value="" style="edgeStyle=orthogonalEdgeStyle;rounded=0;orthogonalLoop=1;jettySize=auto;html=1;" edge="1" parent="WIyWlLk6GJQsqaUBKTNV-1" source="Wcoj9C88xGsYQc_cgpiG-12" target="Wcoj9C88xGsYQc_cgpiG-9">
          <mxGeometry relative="1" as="geometry" />
        </mxCell>
        <mxCell id="Wcoj9C88xGsYQc_cgpiG-12" value="&lt;font color=&quot;#353833&quot; face=&quot;dejavu sans mono, monospace&quot;&gt;&lt;span style=&quot;font-size: 14px&quot;&gt;&lt;b&gt;SortedSet&lt;/b&gt;&lt;/span&gt;&lt;/font&gt;" style="rounded=0;whiteSpace=wrap;html=1;" vertex="1" parent="WIyWlLk6GJQsqaUBKTNV-1">
          <mxGeometry x="440" y="273" width="120" height="60" as="geometry" />
        </mxCell>
        <mxCell id="Wcoj9C88xGsYQc_cgpiG-32" value="" style="endArrow=none;dashed=1;html=1;dashPattern=1 3;strokeWidth=2;rounded=0;exitX=0.5;exitY=0;exitDx=0;exitDy=0;" edge="1" parent="WIyWlLk6GJQsqaUBKTNV-1" source="Wcoj9C88xGsYQc_cgpiG-11">
          <mxGeometry width="50" height="50" relative="1" as="geometry">
            <mxPoint x="390" y="320" as="sourcePoint" />
            <mxPoint x="310" y="100" as="targetPoint" />
            <Array as="points">
              <mxPoint x="580" y="120" />
              <mxPoint x="450" y="120" />
              <mxPoint x="310" y="120" />
            </Array>
          </mxGeometry>
        </mxCell>
        <mxCell id="Wcoj9C88xGsYQc_cgpiG-35" value="" style="endArrow=none;dashed=1;html=1;dashPattern=1 3;strokeWidth=2;rounded=0;entryX=0.5;entryY=1;entryDx=0;entryDy=0;exitX=0.5;exitY=0;exitDx=0;exitDy=0;" edge="1" parent="WIyWlLk6GJQsqaUBKTNV-1" source="Wcoj9C88xGsYQc_cgpiG-12" target="Wcoj9C88xGsYQc_cgpiG-11">
          <mxGeometry width="50" height="50" relative="1" as="geometry">
            <mxPoint x="390" y="320" as="sourcePoint" />
            <mxPoint x="440" y="270" as="targetPoint" />
            <Array as="points">
              <mxPoint x="500" y="240" />
              <mxPoint x="580" y="240" />
            </Array>
          </mxGeometry>
        </mxCell>
      </root>
    </mxGraphModel>
  </diagram>
</mxfile>
